<?xml version="1.0" encoding="utf-8"?>
<!-- Generator: Adobe Illustrator 21.1.0, SVG Export Plug-In . SVG Version: 6.00 Build 0)  -->
<svg version="1.1" id="Layer_1" xmlns="http://www.w3.org/2000/svg" xmlns:xlink="http://www.w3.org/1999/xlink" x="0px" y="0px"
	 viewBox="0 0 70 60" style="enable-background:new 0 0 70 60;" xml:space="preserve">
<style type="text/css">
	.st0{display:none;}
	.st1{display:inline;}
	.st2{fill:#1EAEE3;}
	.st3{display:inline;fill:#1EAEE3;}
</style>
<g class="st0">
	<g class="st1">
		<path class="st2" d="M64.9,11.7h-2.2V8.4H51.6v3.3h-4.4V5.3c0-2-1.6-3.6-3.6-3.6H26.4c-2,0-3.6,1.6-3.6,3.6v6.4h-4.4V8.4H7.3v3.3
			H5.1c-1.8,0-3.3,1.5-3.3,3.3v39.8c0,1.8,1.5,3.3,3.3,3.3h59.8c1.8,0,3.3-1.5,3.3-3.3V15.1C68.2,13.2,66.7,11.7,64.9,11.7
			L64.9,11.7z M53.8,10.6h6.6v1.1h-6.6V10.6z M25,5.3C25,4.6,25.6,4,26.4,4h17.3C44.4,4,45,4.6,45,5.3v6.4H25V5.3z M22.8,13.9h34.3
			V56H12.8V13.9H22.8z M9.5,10.6h6.6v1.1H9.5V10.6z M4,54.9V15.1c0-0.6,0.5-1.1,1.1-1.1h5.5V56H5.1C4.5,56,4,55.5,4,54.9L4,54.9z
			 M66,54.9c0,0.6-0.5,1.1-1.1,1.1h-5.5V13.9h5.5c0.6,0,1.1,0.5,1.1,1.1V54.9z M66,54.9"/>
		<path class="st2" d="M64.9,59H5.1C2.9,59,1,57.2,1,54.9V15.1C1,12.8,2.9,11,5.1,11h1.4V7.6h12.6V11h2.9V5.3C22.1,2.9,24,1,26.4,1
			h17.3c2.4,0,4.3,1.9,4.3,4.3V11h2.9V7.6h12.6V11h1.4c2.3,0,4.1,1.8,4.1,4.1v39.8C69,57.2,67.1,59,64.9,59z M5.1,12.5
			c-1.4,0-2.6,1.2-2.6,2.6v39.8c0,1.4,1.2,2.6,2.6,2.6h59.8c1.4,0,2.6-1.2,2.6-2.6V15.1c0-1.4-1.2-2.6-2.6-2.6h-3V9.2h-9.6v3.3h-5.9
			V5.3c0-1.5-1.3-2.8-2.8-2.8H26.4c-1.5,0-2.8,1.3-2.8,2.8v7.2h-5.9V9.2H8.1v3.3H5.1z M64.9,56.8h-6.3V13.2h6.3c1,0,1.9,0.8,1.9,1.9
			v39.8C66.8,55.9,65.9,56.8,64.9,56.8z M60.1,55.3h4.8c0.2,0,0.4-0.2,0.4-0.4V15.1c0-0.2-0.2-0.4-0.4-0.4h-4.8V55.3z M57.9,56.8
			H12.1V13.2h45.8V56.8z M13.6,55.3h42.8V14.7H13.6V55.3z M11.4,56.8H5.1c-1,0-1.9-0.8-1.9-1.9V15.1c0-1,0.8-1.9,1.9-1.9h6.3V56.8z
			 M5.1,14.7c-0.2,0-0.4,0.2-0.4,0.4v39.8c0,0.2,0.2,0.4,0.4,0.4h4.8V14.7H5.1z M61.2,12.5h-8.2V9.9h8.2V12.5z M45.7,12.5H24.3V5.3
			c0-1.2,0.9-2.1,2.1-2.1h17.3c1.2,0,2.1,0.9,2.1,2.1V12.5z M25.8,11h18.4V5.3c0-0.3-0.3-0.6-0.6-0.6H26.4c-0.3,0-0.6,0.3-0.6,0.6
			V11z M16.9,12.5H8.8V9.9h8.2V12.5z"/>
	</g>
</g>
<g class="st0">
	<path class="st3" d="M35,6.9c9.5,0,19.1,0,28.6,0c3.3,0,5.9,2.1,5.9,4.9c0,12.1,0,24.3,0,36.4c0,2.8-2.5,4.9-5.9,4.9
		c-19.1,0-38.1,0-57.2,0c-3.6,0-5.9-2.1-5.9-5.2c0-7.1,0-14.1,0-21.2c0-4.9,0-9.8,0-14.7c0-2.6,1.5-4.3,4.2-5
		c0.5-0.1,1.1-0.2,1.7-0.2C15.9,6.9,25.5,6.9,35,6.9z M5.3,30.1c0,0.5,0,0.9,0,1.2c0,5.2,0,10.4,0,15.6c0,2.1,0,2.1,2.6,2.1
		c18.3,0,36.5,0,54.8,0c1.8,0,2-0.2,2-1.7c0-5.3,0-10.6,0-15.9c0-1.4,0-1.4-1.6-1.4c-18.8,0-37.5,0-56.3,0
		C6.4,30.1,5.9,30.1,5.3,30.1z M35,18.4c9.4,0,18.9,0,28.3,0c1.2,0,1.5-0.3,1.5-1.3c-0.1-1.5,0-3,0-4.5c0-1.6-0.3-1.8-2.2-1.8
		c-18.1,0-36.1,0-54.2,0c-0.5,0-0.9,0-1.4,0c-1.2,0-1.6,0.4-1.7,1.4c0,1.6,0,3.3,0,4.9c0,1.3,0,1.3,1.6,1.3
		C16.2,18.4,25.6,18.4,35,18.4z"/>
	<path class="st3" d="M37.4,45.4c-1.9,0-3.7,0-5.4,0c-2.5,0-5,0-7.4,0c-0.9,0-1.1-0.2-1.1-0.9c0.1-0.8,0-1.5,0-2.3
		c0-0.5,0.2-0.8,0.9-0.8c4,0,8.1,0,12.1,0c0.5,0,0.9,0.1,0.9,0.6C37.4,43.1,37.4,44.1,37.4,45.4z"/>
	<path class="st3" d="M14.3,45.4c-1.2,0-2.4,0-3.7,0c-0.7,0-1.1-0.1-1-0.8c0.1-0.8,0-1.6,0-2.4c0-0.5,0.2-0.8,0.9-0.8
		c2.6,0,5.1,0,7.7,0c0.3,0,0.8,0.4,0.8,0.7c0.1,0.9,0.1,1.8,0,2.7c0,0.2-0.5,0.6-0.8,0.6C16.9,45.4,15.6,45.4,14.3,45.4z"/>
</g>
<g>
	<path class="st2" d="M55.3,58.8H40.1L40,57.3c0-0.1,0-0.2,0-0.2c0-0.2,0-0.4,0-0.7c0-1.6,0-3.1,0-4.7c0-1.8,0-3.7,0-5.5
		c0,0,0-0.1,0-0.1c0,0-0.1,0-0.1,0c-3.2,0-6.5,0-9.8,0c0,0-0.1,0-0.1,0c0,0,0,0.1,0,0.1c0,1.6,0,3.3,0,4.9c0,1.6,0,3.2,0,4.8
		c0,0.3,0,0.7,0,1c0,0.1,0,0.3,0,0.4l0,1.5H14.7l-0.4-0.3c-1.5-1-1.5-2.6-1.5-3.1c0-9,0-17.9,0-24.7c0-0.9,0.3-1.6,1-2.2
		c5-4.4,10.1-8.9,15-13.3l4.6-4.1c0.1-0.1,0.3-0.2,0.4-0.3c0.1,0,0.1-0.1,0.2-0.1l1-0.8l1,0.8c0,0,0.1,0.1,0.1,0.1
		c0.1,0.1,0.2,0.1,0.3,0.2l2.4,2.2c5.7,5,11.6,10.3,17.4,15.4c0.7,0.6,0.9,1.5,0.9,2.1c0,4.1,0,8.3,0,12.4c0,4.1,0,8.3,0,12.4
		c0,0.5,0,2.1-1.5,3.1L55.3,58.8z M43,55.7h11c0-0.1,0-0.2,0-0.3c0-4.1,0-8.3,0-12.4c0-4,0-8.2,0-12.3c-5.7-5.1-11.6-10.3-17.2-15.3
		L35,13.8l-4.1,3.6c-4.9,4.3-10,8.8-15,13.3c0,6.8,0,15.8,0,24.7c0,0.1,0,0.2,0,0.3h11c0-1.5,0-3.1,0-4.6c0-1.6,0-3.3,0-4.9
		c0-2,1.1-3.1,3.1-3.1c3.2,0,6.5,0,9.8,0c2,0,3.1,1.1,3.1,3.1c0,1.8,0,3.7,0,5.5C43,53.1,43,54.4,43,55.7z M15.8,30.7L15.8,30.7
		L15.8,30.7z M15.9,30.6C15.9,30.6,15.9,30.6,15.9,30.6C15.9,30.6,15.9,30.6,15.9,30.6z"/>
	<path class="st2" d="M35.2,1.2C36,2,36.7,2.7,37.5,3.4c8.8,7.8,17.6,15.6,26.4,23.4c0.1,0.1,0.3,0.2,0.4,0.3c0,0,0,0.1,0,0.1
		c-1,1.1-2,2.2-3.1,3.4C52.5,22.8,43.8,15.1,35,7.3c-8.8,7.8-17.5,15.5-26.2,23.2c-1.1-1.1-2.1-2.3-3.1-3.4c0,0,0-0.1,0-0.1
		c0.1-0.1,0.3-0.2,0.4-0.3C15,18.9,23.9,11,32.8,3.1c0.7-0.6,1.3-1.2,2-1.8C34.9,1.2,35.1,1.2,35.2,1.2z"/>
	<g>
		<path class="st2" d="M50,39.7H39.8V29.4H50V39.7z M42,37.4h5.8v-5.8H42V37.4z"/>
		<path class="st2" d="M30.2,39.7H20V29.4h10.2V39.7z M22.2,37.4H28v-5.8h-5.8V37.4z"/>
	</g>
</g>
</svg>
